<?xml version="1.0" standalone="no"?>
<!DOCTYPE svg PUBLIC "-//W3C//DTD SVG 20010904//EN"
 "http://www.w3.org/TR/2001/REC-SVG-20010904/DTD/svg10.dtd">
<svg version="1.0" xmlns="http://www.w3.org/2000/svg"
 width="443.000000pt" height="116.000000pt" viewBox="0 0 443.000000 116.000000"
 preserveAspectRatio="xMidYMid meet">

<g transform="translate(0.000000,116.000000) scale(0.100000,-0.100000)"
fill="#000000" stroke="none">
<path d="M2291 1045 c-29 -7 -57 -17 -61 -22 -8 -10 -152 -964 -146 -970 5 -5
116 18 116 24 0 4 138 930 143 961 2 12 4 22 3 21 0 -1 -25 -7 -55 -14z"/>
<path d="M2586 804 c-21 -20 -20 -37 2 -57 48 -44 126 15 80 61 -17 17 -64 15
-82 -4z"/>
<path d="M555 785 c-22 -8 -52 -28 -67 -45 l-28 -30 0 -160 0 -159 30 -34 c71
-81 227 -64 266 28 21 50 18 55 -26 55 -22 0 -40 -4 -40 -10 0 -5 -9 -19 -20
-30 -24 -24 -77 -26 -108 -4 -21 14 -22 22 -22 150 0 121 2 136 20 154 12 12
33 20 55 20 34 0 75 -27 75 -50 0 -5 18 -10 41 -10 40 0 41 1 34 28 -21 85
-118 130 -210 97z"/>
<path d="M1480 711 l0 -89 -29 29 c-24 23 -38 29 -74 29 -86 0 -127 -60 -127
-184 0 -117 29 -172 101 -189 40 -10 97 10 114 41 l14 27 1 -32 c0 -32 2 -33
40 -33 l40 0 0 245 0 245 -40 0 -40 0 0 -89z m-21 -127 c17 -21 21 -41 21 -93
0 -85 -16 -111 -68 -111 -63 0 -82 28 -82 118 0 75 25 112 75 112 24 0 39 -7
54 -26z"/>
<path d="M210 640 l-145 -67 -3 -42 -3 -42 75 -34 c42 -19 110 -51 152 -70
l75 -34 -3 40 -3 40 -100 44 c-55 24 -109 46 -120 50 -17 6 -14 9 20 20 22 7
76 29 120 48 81 36 91 48 83 95 -3 16 -21 10 -148 -48z"/>
<path d="M4062 664 c3 -34 5 -36 103 -79 55 -24 109 -46 120 -51 l20 -7 -20
-4 c-11 -3 -66 -25 -122 -50 l-103 -46 0 -37 0 -38 148 67 147 68 0 43 0 43
-139 63 c-77 35 -144 64 -148 64 -5 0 -8 -16 -6 -36z"/>
<path d="M919 657 c-50 -33 -69 -79 -69 -165 0 -129 49 -185 160 -185 111 0
160 56 160 185 0 86 -19 132 -69 165 -47 32 -135 32 -182 0z m142 -66 c19 -15
24 -30 27 -87 3 -59 1 -73 -18 -96 -17 -22 -30 -28 -60 -28 -57 0 -80 34 -80
117 0 55 4 67 25 88 29 30 73 33 106 6z"/>
<path d="M1719 657 c-50 -33 -69 -79 -69 -165 0 -89 18 -133 67 -164 44 -27
133 -29 180 -5 30 16 63 52 63 69 0 14 -74 8 -94 -7 -27 -20 -79 -19 -105 3
-11 9 -24 32 -27 50 l-6 32 121 0 121 0 0 48 c0 100 -61 162 -160 162 -43 0
-66 -6 -91 -23z m148 -60 c6 -6 15 -24 18 -39 l7 -28 -81 0 c-45 0 -81 4 -81
9 0 26 22 63 42 71 27 11 78 4 95 -13z"/>
<path d="M2487 674 c-4 -4 -7 -22 -7 -41 l0 -33 60 0 60 0 0 -105 0 -105 -65
0 -65 0 0 -40 0 -40 155 0 155 0 0 40 0 40 -50 0 -49 0 -3 143 -3 142 -90 3
c-50 1 -94 0 -98 -4z"/>
<path d="M2860 496 l0 -186 40 0 40 0 0 130 c0 117 2 132 20 150 23 23 68 26
96 6 17 -13 19 -29 22 -150 l4 -136 39 0 39 0 0 138 c0 151 -12 195 -60 219
-52 26 -133 9 -147 -31 -6 -19 -7 -18 -12 9 -5 26 -11 30 -44 33 l-37 3 0
-185z"/>
<path d="M3309 663 c-15 -9 -34 -32 -43 -50 -20 -42 -21 -152 -2 -198 17 -40
68 -75 109 -75 38 0 86 26 97 53 7 17 9 10 9 -30 1 -75 -19 -93 -104 -93 l-65
0 0 -35 0 -35 68 0 c83 0 144 26 166 69 13 24 16 67 16 221 l0 190 -40 0 c-39
0 -40 -1 -41 -37 0 -32 -2 -34 -9 -17 -21 52 -107 71 -161 37z m137 -61 c21
-14 34 -51 34 -97 0 -83 -72 -124 -125 -70 -33 32 -35 110 -4 149 20 26 69 36
95 18z"/>
<path d="M3719 657 c-50 -33 -69 -79 -69 -165 0 -129 49 -185 160 -185 111 0
160 56 160 185 0 86 -19 132 -69 165 -47 32 -135 32 -182 0z m142 -66 c19 -15
24 -30 27 -87 3 -59 1 -73 -18 -96 -17 -22 -30 -28 -60 -28 -57 0 -80 34 -80
117 0 55 4 67 25 88 29 30 73 33 106 6z"/>
</g>
</svg>
